<?xml version="1.0" encoding="UTF-8"?>
<svg id="Layer_2" data-name="Layer 2" xmlns="http://www.w3.org/2000/svg" viewBox="0 0 8.07 5.68">
  <defs>
    <style>
      .cls-1 {
        fill: #f29c23;
      }
    </style>
  </defs>
  <g id="Layer_1-2" data-name="Layer 1">
    <path class="cls-1" d="M4.03,5.68c-1.22,0-2.45,0-3.67,0-.24,0-.37-.12-.37-.36C0,3.66,0,2,0,.34,0,.18,.08,.06,.22,.02,.26,0,.3,0,.33,0,2.8,0,5.27,0,7.74,0c.2,0,.33,.14,.33,.33,0,1.67,0,3.34,0,5.01,0,.21-.13,.34-.34,.34-1.23,0-2.46,0-3.69,0ZM1.18,.64c.96,.84,1.91,1.66,2.86,2.49,.95-.83,1.9-1.66,2.85-2.49H1.18ZM3.22,3.27c-.68,.59-1.35,1.18-2.04,1.77H6.89c-.68-.6-1.35-1.18-2.03-1.77-.01,.01-.03,.02-.04,.03-.18,.16-.37,.32-.55,.48-.16,.14-.32,.14-.47,0-.19-.17-.39-.34-.59-.51ZM.65,1.03v3.63c.7-.61,1.39-1.21,2.08-1.81-.7-.61-1.39-1.21-2.08-1.81Zm6.78,0c-.7,.61-1.38,1.21-2.08,1.81,.69,.61,1.38,1.21,2.08,1.81V1.03Z"/>
  </g>
</svg>